<svg style="width: 1.0341796875em;height: 1em;vertical-align: middle;fill: currentColor;overflow: hidden;" viewBox="0 0 1059 1024" version="1.1" xmlns="http://www.w3.org/2000/svg" p-id="722">
    <path d="M963.314286 183.657143h-35.085715l12.457143-142.742857c0.571429-6.285714-4.114286-11.771429-10.4-12.342857L800.342857 17.142857c-6.285714-0.571429-11.771429 4.114286-12.342857 10.4l-13.714286 156.114286H60.685714C27.2 183.657143 0 210.4 0 243.428571v29.371429c0 30.514286 23.314286 55.771429 53.371429 59.428571l72 606.742858 16.8 12.342857c7.085714 5.257143 29.6 18.857143 84 31.2 70.628571 16.114286 166.742857 24.342857 285.942857 24.342857s215.428571-8.228571 285.942857-24.342857c54.4-12.457143 76.8-26.057143 84-31.2l16.8-12.342857s72.8-606.857143 72.914286-606.857143c29.485714-4 52.342857-29.028571 52.342857-59.314286V243.428571c-0.114286-33.028571-27.314286-59.771429-60.8-59.771428z" fill="#25467A" p-id="723"></path>
    <path d="M770.373714 779.242286L832.588571 68.125714l57.153143 5-62.214857 711.116572z" fill="#FFFFFF" p-id="724"></path>
    <path d="M92.342857 253.942857l78.171429 658.742857s62.857143 46.285714 341.485714 46.285715 341.485714-46.285714 341.485714-46.285715l78.171429-658.742857H92.342857z" fill="#FFF5E6" p-id="725"></path>
    <path d="M177.371429 609.028571a334.628571 281.714286 0 1 0 669.257142 0 334.628571 281.714286 0 1 0-669.257142 0Z" fill="#FFFFFF" p-id="726"></path>
    <path d="M963.314286 284.685714H60.685714c-6.971429 0-12.685714-5.257143-12.685714-11.885714V243.428571c0-6.628571 5.714286-11.885714 12.685714-11.885714h902.628572c7.085714 0 12.685714 5.257143 12.685714 11.885714v29.371429c0 6.628571-5.714286 11.885714-12.685714 11.885714z" fill="#4791DB" p-id="727"></path>
    <path d="M743.885714 383.771429c-29.714286-7.428571-36.342857-25.828571-80.228571-62.742858-63.542857-53.485714-175.314286-76-212.8-89.485714h504.685714c6.057143 61.828571-124.457143 174.057143-211.657143 152.228572z" fill="#0D47A1" p-id="728"></path>
    <path d="M512 685.371429c-38.171429 0-69.142857-30.971429-69.142857-69.257143 0-7.657143 6.171429-13.828571 13.828571-13.828572 7.314286 0 13.485714 5.714286 13.828572 13.028572v0.8c-0.342857 22.971429 17.942857 41.828571 40.8 42.171428 22.971429 0.342857 41.828571-17.942857 42.171428-40.8v-1.371428c-0.228571-7.657143 5.828571-14.057143 13.371429-14.285715 7.657143-0.228571 14.057143 5.828571 14.285714 13.371429v0.8c0 38.4-30.971429 69.371429-69.142857 69.371429zM332.114286 505.485714c-0.342857 22.971429 17.942857 41.828571 40.8 42.171429s41.828571-17.942857 42.171428-40.8v-1.371429c0.342857-22.971429-17.942857-41.828571-40.8-42.171428s-41.828571 17.942857-42.171428 40.8v1.371428zM608.8 505.485714c-0.342857 22.971429 17.828571 41.828571 40.8 42.285715 22.971429 0.342857 41.828571-17.828571 42.285714-40.8v-1.485715c0.342857-22.971429-17.942857-41.828571-40.8-42.171428-22.971429-0.342857-41.828571 17.942857-42.171428 40.8-0.114286 0.457143-0.114286 0.914286-0.114286 1.371428z" fill="#25467A" p-id="729"></path>
    <path d="M318.285714 574.742857h-55.314285c-15.314286 0.342857-27.428571 12.914286-27.085715 28.228572 0.342857 14.857143 12.228571 26.857143 27.085715 27.085714h55.428571c15.314286 0.342857 27.885714-11.771429 28.228571-27.085714 0.342857-15.314286-11.771429-27.885714-27.085714-28.228572h-1.257143z m442.742857 0h-55.314285c-15.314286 0.342857-27.428571 12.914286-27.085715 28.228572 0.342857 14.857143 12.228571 26.857143 27.085715 27.085714h55.314285c15.314286-0.342857 27.428571-12.914286 27.085715-28.228572-0.228571-14.857143-12.228571-26.857143-27.085715-27.085714z" fill="#BBDEFB" p-id="730"></path>
</svg>
